<svg width="224" height="48" viewBox="0 0 224 48" fill="none" xmlns="http://www.w3.org/2000/svg">
<rect width="224" height="48" rx="6" fill="white"/>
<path d="M15 30.5V17C15 15.3432 16.3432 14 18 14H32C32.5523 14 33 14.4477 33 15V33C33 33.5523 32.5523 34 32 34H18.5C16.567 34 15 32.433 15 30.5ZM31 32V29H18.5C17.6716 29 17 29.6716 17 30.5C17 31.3284 17.6716 32 18.5 32H31ZM22 16H18C17.4477 16 17 16.4477 17 17V27.3368C17.4546 27.1208 17.9632 27 18.5 27H31V16H29V24L25.5 22L22 24V16Z" fill="#6F767E"/>
<path d="M54.352 20.144C53.8293 20.144 53.3653 20.24 52.96 20.432C52.5547 20.624 52.208 20.9013 51.92 21.264C51.6427 21.6267 51.4293 22.064 51.28 22.576C51.1413 23.088 51.072 23.664 51.072 24.304C51.072 25.168 51.1893 25.9093 51.424 26.528C51.6587 27.136 52.016 27.6053 52.496 27.936C52.9867 28.2667 53.6 28.432 54.336 28.432C54.8267 28.432 55.296 28.384 55.744 28.288C56.2027 28.1813 56.6827 28.0427 57.184 27.872V29.616C56.7147 29.808 56.24 29.9467 55.76 30.032C55.2907 30.1173 54.7467 30.16 54.128 30.16C52.9547 30.16 51.984 29.92 51.216 29.44C50.448 28.9493 49.8773 28.2667 49.504 27.392C49.1307 26.5067 48.944 25.472 48.944 24.288C48.944 23.424 49.0613 22.6347 49.296 21.92C49.5413 21.2053 49.888 20.5867 50.336 20.064C50.7947 19.5413 51.36 19.136 52.032 18.848C52.704 18.56 53.4773 18.416 54.352 18.416C54.928 18.416 55.4933 18.4853 56.048 18.624C56.6133 18.752 57.1413 18.9333 57.632 19.168L56.928 20.848C56.5227 20.6667 56.1013 20.5067 55.664 20.368C55.2373 20.2187 54.8 20.144 54.352 20.144ZM61.4683 20.736C61.4683 21.0773 61.4523 21.4133 61.4203 21.744C61.3989 22.064 61.3776 22.304 61.3563 22.464H61.4843C61.6656 22.1653 61.8896 21.9253 62.1562 21.744C62.4229 21.552 62.7163 21.408 63.0363 21.312C63.3669 21.216 63.7083 21.168 64.0603 21.168C64.7109 21.168 65.2709 21.28 65.7403 21.504C66.2096 21.728 66.5669 22.0747 66.8123 22.544C67.0683 23.0027 67.1962 23.6053 67.1962 24.352V30H65.1803V24.752C65.1803 24.0907 65.0523 23.6 64.7963 23.28C64.5403 22.96 64.1349 22.8 63.5803 22.8C63.0469 22.8 62.6256 22.9173 62.3163 23.152C62.0069 23.376 61.7883 23.712 61.6603 24.16C61.5323 24.5973 61.4683 25.136 61.4683 25.776V30H59.4523V17.84H61.4683V20.736ZM73.1739 21.168C74.2939 21.168 75.1419 21.4133 75.7179 21.904C76.3045 22.384 76.5979 23.1413 76.5979 24.176V30H75.1739L74.7739 28.8H74.7099C74.4645 29.1093 74.2085 29.3707 73.9419 29.584C73.6859 29.7867 73.3872 29.9307 73.0459 30.016C72.7152 30.112 72.3099 30.16 71.8299 30.16C71.3179 30.16 70.8539 30.064 70.4379 29.872C70.0325 29.68 69.7125 29.3867 69.4779 28.992C69.2432 28.5867 69.1259 28.08 69.1259 27.472C69.1259 26.576 69.4512 25.904 70.1019 25.456C70.7632 24.9973 71.7605 24.7467 73.0939 24.704L74.5979 24.656V24.224C74.5979 23.6693 74.4645 23.2747 74.1979 23.04C73.9312 22.8053 73.5579 22.688 73.0779 22.688C72.6405 22.688 72.2192 22.752 71.8139 22.88C71.4085 23.008 71.0139 23.1573 70.6299 23.328L69.9899 21.92C70.4165 21.696 70.9019 21.5147 71.4459 21.376C72.0005 21.2373 72.5765 21.168 73.1739 21.168ZM73.5419 25.936C72.6565 25.968 72.0432 26.1227 71.7019 26.4C71.3605 26.6667 71.1899 27.0293 71.1899 27.488C71.1899 27.8933 71.3125 28.1867 71.5579 28.368C71.8032 28.5493 72.1179 28.64 72.5019 28.64C73.0885 28.64 73.5845 28.4747 73.9899 28.144C74.3952 27.8027 74.5979 27.3013 74.5979 26.64V25.904L73.5419 25.936ZM83.6841 21.168C84.6975 21.168 85.5135 21.5467 86.1321 22.304C86.7508 23.0507 87.0601 24.1653 87.0601 25.648C87.0601 26.6293 86.9161 27.456 86.6281 28.128C86.3401 28.8 85.9401 29.3067 85.4281 29.648C84.9161 29.9893 84.3188 30.16 83.6361 30.16C83.2201 30.16 82.8521 30.1067 82.5321 30C82.2121 29.8827 81.9401 29.7387 81.7161 29.568C81.4921 29.3867 81.3001 29.1947 81.1401 28.992H81.0121C81.0548 29.184 81.0868 29.4027 81.1081 29.648C81.1295 29.8827 81.1401 30.1067 81.1401 30.32V33.84H79.1241V21.328H80.7561L81.0441 22.48H81.1401C81.3001 22.2347 81.4921 22.016 81.7161 21.824C81.9508 21.6213 82.2281 21.4613 82.5481 21.344C82.8788 21.2267 83.2575 21.168 83.6841 21.168ZM83.1081 22.8C82.6388 22.8 82.2601 22.896 81.9721 23.088C81.6841 23.2693 81.4761 23.552 81.3481 23.936C81.2201 24.32 81.1508 24.8 81.1401 25.376V25.632C81.1401 26.2507 81.1988 26.7733 81.3161 27.2C81.4441 27.6267 81.6521 27.952 81.9401 28.176C82.2388 28.4 82.6388 28.512 83.1401 28.512C83.5668 28.512 83.9135 28.3947 84.1801 28.16C84.4575 27.9253 84.6601 27.5947 84.7881 27.168C84.9268 26.7307 84.9961 26.2133 84.9961 25.616C84.9961 24.72 84.8415 24.0267 84.5321 23.536C84.2335 23.0453 83.7588 22.8 83.1081 22.8ZM92.4998 28.544C92.7558 28.544 93.0011 28.5227 93.2358 28.48C93.4704 28.4267 93.6891 28.368 93.8918 28.304V29.808C93.6784 29.904 93.4011 29.984 93.0598 30.048C92.7184 30.1227 92.3611 30.16 91.9878 30.16C91.4971 30.16 91.0491 30.08 90.6438 29.92C90.2491 29.7493 89.9291 29.4613 89.6838 29.056C89.4491 28.6507 89.3318 28.0853 89.3318 27.36V22.848H88.1638V21.968L89.4438 21.264L90.0838 19.424H91.3478V21.328H93.8118V22.848H91.3478V27.344C91.3478 27.7493 91.4544 28.0533 91.6678 28.256C91.8811 28.448 92.1584 28.544 92.4998 28.544ZM99.1278 21.168C99.9064 21.168 100.573 21.328 101.128 21.648C101.693 21.9573 102.13 22.4053 102.44 22.992C102.749 23.568 102.904 24.272 102.904 25.104V26.128H97.1758C97.1971 26.9173 97.4158 27.5307 97.8318 27.968C98.2478 28.3947 98.8238 28.608 99.5598 28.608C100.125 28.608 100.626 28.5547 101.064 28.448C101.512 28.3307 101.97 28.1653 102.44 27.952V29.568C102.013 29.7707 101.57 29.92 101.112 30.016C100.653 30.112 100.104 30.16 99.4638 30.16C98.6211 30.16 97.8691 30 97.2078 29.68C96.5571 29.3493 96.0451 28.8533 95.6718 28.192C95.3091 27.5307 95.1278 26.7093 95.1278 25.728C95.1278 24.736 95.2931 23.904 95.6238 23.232C95.9651 22.5493 96.4344 22.0373 97.0318 21.696C97.6291 21.344 98.3278 21.168 99.1278 21.168ZM99.1278 22.656C98.5944 22.656 98.1571 22.832 97.8158 23.184C97.4851 23.5253 97.2878 24.0373 97.2238 24.72H100.952C100.952 24.3147 100.882 23.9573 100.744 23.648C100.616 23.3387 100.418 23.0987 100.152 22.928C99.8851 22.7467 99.5438 22.656 99.1278 22.656ZM109.481 21.168C109.609 21.168 109.758 21.1733 109.929 21.184C110.099 21.1947 110.243 21.216 110.361 21.248L110.185 23.12C110.089 23.0987 109.961 23.0827 109.801 23.072C109.651 23.0507 109.518 23.04 109.401 23.04C109.081 23.04 108.771 23.0933 108.473 23.2C108.185 23.296 107.923 23.4453 107.689 23.648C107.465 23.84 107.283 24.0907 107.145 24.4C107.017 24.7093 106.953 25.0773 106.953 25.504V30H104.937V21.328H106.489L106.777 22.832H106.873C107.043 22.5227 107.257 22.2453 107.513 22C107.769 21.744 108.062 21.5413 108.393 21.392C108.734 21.2427 109.097 21.168 109.481 21.168Z" fill="#6F767E"/>
</svg>
