<svg width="224" height="48" viewBox="0 0 224 48" fill="none" xmlns="http://www.w3.org/2000/svg">
<rect width="224" height="48" rx="6" fill="#EEEEEE"/>
<path d="M14 15.9934C14 15.4448 14.4553 15 14.9918 15H33.0082C33.556 15 34 15.445 34 15.9934V32.0066C34 32.5552 33.5447 33 33.0082 33H14.9918C14.4441 33 14 32.5551 14 32.0066V15.9934ZM24 17V31H32V17H24ZM25 19H31V21H25V19ZM25 22H31V24H25V22Z" fill="black"/>
<path d="M56.176 26.832C56.176 27.504 56.0107 28.0907 55.68 28.592C55.3493 29.0933 54.8693 29.4827 54.24 29.76C53.6213 30.0267 52.864 30.16 51.968 30.16C51.5733 30.16 51.184 30.1333 50.8 30.08C50.4267 30.0267 50.064 29.952 49.712 29.856C49.3707 29.7493 49.0453 29.6213 48.736 29.472V27.216C49.28 27.4507 49.84 27.6693 50.416 27.872C51.0027 28.064 51.584 28.16 52.16 28.16C52.5547 28.16 52.8693 28.1067 53.104 28C53.3493 27.8933 53.5253 27.7493 53.632 27.568C53.7493 27.3867 53.808 27.1787 53.808 26.944C53.808 26.656 53.7067 26.4107 53.504 26.208C53.312 26.0053 53.0507 25.8187 52.72 25.648C52.3893 25.4667 52.0107 25.2747 51.584 25.072C51.3173 24.944 51.0293 24.7947 50.72 24.624C50.4107 24.4427 50.112 24.224 49.824 23.968C49.5467 23.7013 49.3173 23.3813 49.136 23.008C48.9547 22.6347 48.864 22.1867 48.864 21.664C48.864 20.9813 49.0187 20.4 49.328 19.92C49.648 19.4293 50.096 19.056 50.672 18.8C51.2587 18.544 51.9467 18.416 52.736 18.416C53.3333 18.416 53.8987 18.4853 54.432 18.624C54.976 18.7627 55.5413 18.96 56.128 19.216L55.344 21.104C54.8213 20.8907 54.352 20.7253 53.936 20.608C53.52 20.4907 53.0933 20.432 52.656 20.432C52.3573 20.432 52.1013 20.48 51.888 20.576C51.6747 20.672 51.5093 20.8053 51.392 20.976C51.2853 21.1467 51.232 21.3493 51.232 21.584C51.232 21.8507 51.312 22.08 51.472 22.272C51.632 22.4533 51.872 22.6293 52.192 22.8C52.512 22.9707 52.912 23.1733 53.392 23.408C53.9787 23.6853 54.4747 23.9733 54.88 24.272C55.296 24.5707 55.616 24.9227 55.84 25.328C56.064 25.7333 56.176 26.2347 56.176 26.832ZM61.7405 28.256C62.0072 28.256 62.2632 28.2293 62.5085 28.176C62.7538 28.1227 62.9992 28.0587 63.2445 27.984V29.76C62.9885 29.8667 62.6685 29.9573 62.2845 30.032C61.9112 30.1173 61.5005 30.16 61.0525 30.16C60.5298 30.16 60.0605 30.0747 59.6445 29.904C59.2392 29.7333 58.9138 29.44 58.6685 29.024C58.4338 28.5973 58.3165 28.0107 58.3165 27.264V23.056H57.1805V22.048L58.4925 21.248L59.1805 19.408H60.7005V21.264H63.1485V23.056H60.7005V27.264C60.7005 27.5947 60.7965 27.8453 60.9885 28.016C61.1805 28.176 61.4312 28.256 61.7405 28.256ZM73.014 21.264V30H71.19L70.87 28.88H70.742C70.5607 29.1787 70.326 29.424 70.038 29.616C69.7607 29.7973 69.4513 29.9307 69.11 30.016C68.7687 30.112 68.4167 30.16 68.054 30.16C67.4353 30.16 66.8913 30.048 66.422 29.824C65.9527 29.6 65.59 29.2533 65.334 28.784C65.078 28.3147 64.95 27.7067 64.95 26.96V21.264H67.334V26.368C67.334 26.9867 67.446 27.456 67.67 27.776C67.894 28.096 68.2513 28.256 68.742 28.256C69.2327 28.256 69.6113 28.144 69.878 27.92C70.1553 27.696 70.3473 27.3707 70.454 26.944C70.5713 26.5173 70.63 25.9947 70.63 25.376V21.264H73.014ZM78.2816 30.16C77.311 30.16 76.5163 29.7813 75.8976 29.024C75.2896 28.256 74.9856 27.1307 74.9856 25.648C74.9856 24.1547 75.295 23.024 75.9136 22.256C76.5323 21.488 77.343 21.104 78.3456 21.104C78.7616 21.104 79.1296 21.1627 79.4496 21.28C79.7696 21.3867 80.0416 21.536 80.2656 21.728C80.5003 21.92 80.6976 22.1387 80.8576 22.384H80.9376C80.9056 22.2133 80.8683 21.968 80.8256 21.648C80.783 21.3173 80.7616 20.9813 80.7616 20.64V17.84H83.1456V30H81.3216L80.8576 28.864H80.7616C80.6123 29.0987 80.4203 29.3173 80.1856 29.52C79.9616 29.712 79.695 29.8667 79.3856 29.984C79.0763 30.1013 78.7083 30.16 78.2816 30.16ZM79.1136 28.256C79.775 28.256 80.239 28.064 80.5056 27.68C80.7723 27.2853 80.911 26.6987 80.9216 25.92V25.664C80.9216 24.8107 80.7883 24.16 80.5216 23.712C80.2656 23.264 79.7856 23.04 79.0816 23.04C78.559 23.04 78.1483 23.2693 77.8496 23.728C77.551 24.176 77.4016 24.8267 77.4016 25.68C77.4016 26.5333 77.551 27.1787 77.8496 27.616C78.1483 28.0427 78.5696 28.256 79.1136 28.256ZM89.2386 21.104C90.0493 21.104 90.7426 21.2587 91.3186 21.568C91.9053 21.8773 92.3586 22.3253 92.6786 22.912C92.9986 23.4987 93.1586 24.2187 93.1586 25.072V26.224H87.5266C87.548 26.896 87.7453 27.424 88.1186 27.808C88.5026 28.192 89.0306 28.384 89.7026 28.384C90.268 28.384 90.78 28.3307 91.2386 28.224C91.6973 28.1067 92.172 27.9307 92.6626 27.696V29.536C92.236 29.7493 91.7826 29.904 91.3026 30C90.8333 30.1067 90.2626 30.16 89.5906 30.16C88.716 30.16 87.9426 30 87.2706 29.68C86.5986 29.3493 86.0706 28.8533 85.6866 28.192C85.3026 27.5307 85.1106 26.6987 85.1106 25.696C85.1106 24.672 85.2813 23.824 85.6226 23.152C85.9746 22.4693 86.46 21.9573 87.0786 21.616C87.6973 21.2747 88.4173 21.104 89.2386 21.104ZM89.2546 22.8C88.796 22.8 88.412 22.9493 88.1026 23.248C87.804 23.5467 87.628 24.0107 87.5746 24.64H90.9186C90.9186 24.288 90.8546 23.9733 90.7266 23.696C90.6093 23.4187 90.428 23.2 90.1826 23.04C89.9373 22.88 89.628 22.8 89.2546 22.8ZM100.052 21.104C100.99 21.104 101.742 21.36 102.308 21.872C102.873 22.3733 103.156 23.184 103.156 24.304V30H100.772V24.896C100.772 24.2667 100.66 23.7973 100.436 23.488C100.212 23.168 99.8544 23.008 99.3638 23.008C98.6384 23.008 98.1424 23.2587 97.8758 23.76C97.6091 24.2507 97.4758 24.96 97.4758 25.888V30H95.0918V21.264H96.9158L97.2358 22.384H97.3638C97.5558 22.0853 97.7904 21.8453 98.0677 21.664C98.3451 21.472 98.6544 21.3333 98.9958 21.248C99.3371 21.152 99.6891 21.104 100.052 21.104ZM109.287 28.256C109.554 28.256 109.81 28.2293 110.055 28.176C110.301 28.1227 110.546 28.0587 110.791 27.984V29.76C110.535 29.8667 110.215 29.9573 109.831 30.032C109.458 30.1173 109.047 30.16 108.599 30.16C108.077 30.16 107.607 30.0747 107.191 29.904C106.786 29.7333 106.461 29.44 106.215 29.024C105.981 28.5973 105.863 28.0107 105.863 27.264V23.056H104.727V22.048L106.039 21.248L106.727 19.408H108.247V21.264H110.695V23.056H108.247V27.264C108.247 27.5947 108.343 27.8453 108.535 28.016C108.727 28.176 108.978 28.256 109.287 28.256ZM118.641 27.408C118.641 27.9947 118.502 28.496 118.225 28.912C117.948 29.3173 117.532 29.6267 116.977 29.84C116.422 30.0533 115.734 30.16 114.913 30.16C114.305 30.16 113.782 30.1173 113.345 30.032C112.908 29.9573 112.47 29.8293 112.033 29.648V27.68C112.502 27.8933 113.009 28.0693 113.553 28.208C114.097 28.3467 114.577 28.416 114.993 28.416C115.462 28.416 115.793 28.3467 115.985 28.208C116.188 28.0693 116.289 27.888 116.289 27.664C116.289 27.5147 116.246 27.3813 116.161 27.264C116.086 27.1467 115.916 27.0133 115.649 26.864C115.382 26.7147 114.966 26.5227 114.401 26.288C113.857 26.0533 113.409 25.824 113.057 25.6C112.705 25.3653 112.444 25.088 112.273 24.768C112.102 24.4373 112.017 24.0267 112.017 23.536C112.017 22.7253 112.332 22.1173 112.961 21.712C113.59 21.3067 114.428 21.104 115.473 21.104C116.017 21.104 116.534 21.1573 117.025 21.264C117.516 21.3707 118.022 21.5467 118.545 21.792L117.825 23.504C117.537 23.376 117.26 23.264 116.993 23.168C116.726 23.072 116.465 22.9973 116.209 22.944C115.964 22.8907 115.708 22.864 115.441 22.864C115.089 22.864 114.822 22.912 114.641 23.008C114.47 23.104 114.385 23.248 114.385 23.44C114.385 23.5787 114.428 23.7067 114.513 23.824C114.609 23.9307 114.785 24.048 115.041 24.176C115.308 24.304 115.697 24.4747 116.209 24.688C116.71 24.8907 117.142 25.104 117.505 25.328C117.868 25.5413 118.145 25.8133 118.337 26.144C118.54 26.464 118.641 26.8853 118.641 27.408Z" fill="#0A0A0A"/>
</svg>
