<svg width="123" height="24" viewBox="0 0 123 24" fill="none" xmlns="http://www.w3.org/2000/svg">
<path d="M12 2C17.5228 2 22 6.47715 22 12C22 17.5228 17.5228 22 12 22C6.47715 22 2 17.5228 2 12C2 6.47715 6.47715 2 12 2ZM12 4C7.58172 4 4 7.58172 4 12C4 16.4183 7.58172 20 12 20C16.4183 20 20 16.4183 20 12C20 7.58172 16.4183 4 12 4ZM15.8329 7.33748C16.0697 7.17128 16.3916 7.19926 16.5962 7.40381C16.8002 7.60784 16.8267 7.92955 16.6587 8.16418C14.479 11.2095 13.2796 12.8417 13.0607 13.0607C12.4749 13.6464 11.5251 13.6464 10.9393 13.0607C10.3536 12.4749 10.3536 11.5251 10.9393 10.9393C11.3126 10.5661 12.9438 9.36549 15.8329 7.33748ZM17.5 11C18.0523 11 18.5 11.4477 18.5 12C18.5 12.5523 18.0523 13 17.5 13C16.9477 13 16.5 12.5523 16.5 12C16.5 11.4477 16.9477 11 17.5 11ZM6.5 11C7.05228 11 7.5 11.4477 7.5 12C7.5 12.5523 7.05228 13 6.5 13C5.94772 13 5.5 12.5523 5.5 12C5.5 11.4477 5.94772 11 6.5 11ZM8.81802 7.40381C9.20854 7.79433 9.20854 8.4275 8.81802 8.81802C8.4275 9.20854 7.79433 9.20854 7.40381 8.81802C7.01328 8.4275 7.01328 7.79433 7.40381 7.40381C7.79433 7.01328 8.4275 7.01328 8.81802 7.40381ZM12 5.5C12.5523 5.5 13 5.94772 13 6.5C13 7.05228 12.5523 7.5 12 7.5C11.4477 7.5 11 7.05228 11 6.5C11 5.94772 11.4477 5.5 12 5.5Z" fill="#6F767E"/>
<path d="M46.912 12.176C46.912 13.456 46.6667 14.528 46.176 15.392C45.6853 16.256 44.9707 16.9067 44.032 17.344C43.104 17.7813 41.984 18 40.672 18H37.44V6.576H41.024C42.2187 6.576 43.2533 6.78933 44.128 7.216C45.0133 7.64267 45.696 8.272 46.176 9.104C46.6667 9.92533 46.912 10.9493 46.912 12.176ZM44.4 12.24C44.4 11.3973 44.2773 10.704 44.032 10.16C43.7867 9.616 43.4187 9.216 42.928 8.96C42.448 8.69333 41.856 8.56 41.152 8.56H39.856V16H40.896C42.08 16 42.96 15.6853 43.536 15.056C44.112 14.4267 44.4 13.488 44.4 12.24ZM52.6758 9.088C53.8491 9.088 54.7451 9.344 55.3638 9.856C55.9931 10.3573 56.3078 11.1307 56.3078 12.176V18H54.6438L54.1798 16.816H54.1158C53.8704 17.1253 53.6144 17.3813 53.3478 17.584C53.0918 17.7867 52.7931 17.9307 52.4518 18.016C52.1211 18.112 51.7104 18.16 51.2198 18.16C50.7078 18.16 50.2438 18.064 49.8278 17.872C49.4224 17.6693 49.1024 17.3653 48.8678 16.96C48.6331 16.544 48.5158 16.0213 48.5158 15.392C48.5158 14.464 48.8411 13.7813 49.4918 13.344C50.1424 12.896 51.1184 12.6507 52.4198 12.608L53.9398 12.56V12.176C53.9398 11.7173 53.8171 11.3813 53.5718 11.168C53.3371 10.9547 53.0064 10.848 52.5798 10.848C52.1531 10.848 51.7371 10.912 51.3318 11.04C50.9264 11.1573 50.5211 11.3067 50.1158 11.488L49.3318 9.872C49.8011 9.62667 50.3184 9.43467 50.8838 9.296C51.4598 9.15733 52.0571 9.088 52.6758 9.088ZM53.0118 13.984C52.2438 14.0053 51.7104 14.144 51.4118 14.4C51.1131 14.656 50.9638 14.992 50.9638 15.408C50.9638 15.7707 51.0704 16.032 51.2838 16.192C51.4971 16.3413 51.7744 16.416 52.1158 16.416C52.6278 16.416 53.0598 16.2667 53.4118 15.968C53.7638 15.6587 53.9398 15.2267 53.9398 14.672V13.952L53.0118 13.984ZM64.844 15.408C64.844 15.9947 64.7053 16.496 64.428 16.912C64.1507 17.3173 63.7347 17.6267 63.18 17.84C62.6253 18.0533 61.9373 18.16 61.116 18.16C60.508 18.16 59.9853 18.1173 59.548 18.032C59.1107 17.9573 58.6733 17.8293 58.236 17.648V15.68C58.7053 15.8933 59.212 16.0693 59.756 16.208C60.3 16.3467 60.78 16.416 61.196 16.416C61.6653 16.416 61.996 16.3467 62.188 16.208C62.3907 16.0693 62.492 15.888 62.492 15.664C62.492 15.5147 62.4493 15.3813 62.364 15.264C62.2893 15.1467 62.1187 15.0133 61.852 14.864C61.5853 14.7147 61.1693 14.5227 60.604 14.288C60.06 14.0533 59.612 13.824 59.26 13.6C58.908 13.3653 58.6467 13.088 58.476 12.768C58.3053 12.4373 58.22 12.0267 58.22 11.536C58.22 10.7253 58.5347 10.1173 59.164 9.712C59.7933 9.30667 60.6307 9.104 61.676 9.104C62.22 9.104 62.7373 9.15733 63.228 9.264C63.7187 9.37067 64.2253 9.54667 64.748 9.792L64.028 11.504C63.74 11.376 63.4627 11.264 63.196 11.168C62.9293 11.072 62.668 10.9973 62.412 10.944C62.1667 10.8907 61.9107 10.864 61.644 10.864C61.292 10.864 61.0253 10.912 60.844 11.008C60.6733 11.104 60.588 11.248 60.588 11.44C60.588 11.5787 60.6307 11.7067 60.716 11.824C60.812 11.9307 60.988 12.048 61.244 12.176C61.5107 12.304 61.9 12.4747 62.412 12.688C62.9133 12.8907 63.3453 13.104 63.708 13.328C64.0707 13.5413 64.348 13.8133 64.54 14.144C64.7427 14.464 64.844 14.8853 64.844 15.408ZM69.0851 8.32C69.0851 8.74667 69.0691 9.15733 69.0371 9.552C69.0158 9.94667 68.9945 10.224 68.9731 10.384H69.1011C69.2931 10.0853 69.5171 9.84533 69.7731 9.664C70.0291 9.472 70.3118 9.33333 70.6211 9.248C70.9411 9.152 71.2771 9.104 71.6291 9.104C72.2585 9.104 72.8078 9.216 73.2771 9.44C73.7465 9.664 74.1091 10.0107 74.3651 10.48C74.6318 10.9493 74.7651 11.5573 74.7651 12.304V18H72.3811V12.896C72.3811 12.2667 72.2638 11.7973 72.0291 11.488C71.8051 11.168 71.4531 11.008 70.9731 11.008C70.4931 11.008 70.1145 11.12 69.8371 11.344C69.5705 11.568 69.3785 11.8933 69.2611 12.32C69.1438 12.7467 69.0851 13.2693 69.0851 13.888V18H66.7011V5.84H69.0851V8.32ZM79.6008 8.672C79.6008 9.00267 79.5901 9.328 79.5688 9.648C79.5474 9.968 79.5261 10.2187 79.5048 10.4H79.6008C79.8354 10.0373 80.1501 9.73333 80.5448 9.488C80.9394 9.232 81.4514 9.104 82.0808 9.104C83.0621 9.104 83.8568 9.488 84.4648 10.256C85.0728 11.0133 85.3767 12.1333 85.3767 13.616C85.3767 14.608 85.2328 15.4453 84.9448 16.128C84.6674 16.8 84.2781 17.3067 83.7768 17.648C83.2754 17.9893 82.6888 18.16 82.0168 18.16C81.3768 18.16 80.8701 18.048 80.4968 17.824C80.1341 17.5893 79.8354 17.328 79.6008 17.04H79.4408L79.0408 18H77.2168V5.84H79.6008V8.672ZM81.3128 11.008C80.8968 11.008 80.5661 11.0933 80.3208 11.264C80.0754 11.4347 79.8941 11.696 79.7768 12.048C79.6701 12.3893 79.6114 12.8213 79.6008 13.344V13.6C79.6008 14.4427 79.7234 15.0933 79.9688 15.552C80.2248 16 80.6834 16.224 81.3448 16.224C81.8354 16.224 82.2248 16 82.5128 15.552C82.8008 15.0933 82.9448 14.4373 82.9448 13.584C82.9448 12.7307 82.7954 12.0907 82.4968 11.664C82.2088 11.2267 81.8141 11.008 81.3128 11.008ZM95.2778 13.616C95.2778 14.3413 95.1764 14.9867 94.9738 15.552C94.7818 16.1173 94.4991 16.5973 94.1258 16.992C93.7631 17.376 93.3204 17.6693 92.7978 17.872C92.2751 18.064 91.6831 18.16 91.0218 18.16C90.4138 18.16 89.8484 18.064 89.3258 17.872C88.8138 17.6693 88.3711 17.376 87.9978 16.992C87.6244 16.5973 87.3311 16.1173 87.1178 15.552C86.9151 14.9867 86.8138 14.3413 86.8138 13.616C86.8138 12.6453 86.9844 11.8293 87.3258 11.168C87.6671 10.496 88.1578 9.984 88.7978 9.632C89.4378 9.28 90.1951 9.104 91.0698 9.104C91.8911 9.104 92.6164 9.28 93.2458 9.632C93.8751 9.984 94.3711 10.496 94.7338 11.168C95.0964 11.8293 95.2778 12.6453 95.2778 13.616ZM89.2458 13.616C89.2458 14.192 89.3044 14.6773 89.4218 15.072C89.5498 15.456 89.7471 15.7493 90.0138 15.952C90.2804 16.144 90.6271 16.24 91.0538 16.24C91.4804 16.24 91.8218 16.144 92.0778 15.952C92.3444 15.7493 92.5364 15.456 92.6538 15.072C92.7818 14.6773 92.8458 14.192 92.8458 13.616C92.8458 13.04 92.7818 12.56 92.6538 12.176C92.5364 11.792 92.3444 11.504 92.0778 11.312C91.8111 11.12 91.4644 11.024 91.0378 11.024C90.4084 11.024 89.9498 11.2427 89.6618 11.68C89.3844 12.1067 89.2458 12.752 89.2458 13.616ZM100.832 9.088C102.005 9.088 102.901 9.344 103.52 9.856C104.149 10.3573 104.464 11.1307 104.464 12.176V18H102.8L102.336 16.816H102.272C102.027 17.1253 101.771 17.3813 101.504 17.584C101.248 17.7867 100.949 17.9307 100.608 18.016C100.277 18.112 99.8667 18.16 99.376 18.16C98.864 18.16 98.4 18.064 97.984 17.872C97.5787 17.6693 97.2587 17.3653 97.024 16.96C96.7893 16.544 96.672 16.0213 96.672 15.392C96.672 14.464 96.9973 13.7813 97.648 13.344C98.2987 12.896 99.2747 12.6507 100.576 12.608L102.096 12.56V12.176C102.096 11.7173 101.973 11.3813 101.728 11.168C101.493 10.9547 101.163 10.848 100.736 10.848C100.309 10.848 99.8933 10.912 99.488 11.04C99.0827 11.1573 98.6773 11.3067 98.272 11.488L97.488 9.872C97.9573 9.62667 98.4747 9.43467 99.04 9.296C99.616 9.15733 100.213 9.088 100.832 9.088ZM101.168 13.984C100.4 14.0053 99.8667 14.144 99.568 14.4C99.2693 14.656 99.12 14.992 99.12 15.408C99.12 15.7707 99.2267 16.032 99.44 16.192C99.6533 16.3413 99.9307 16.416 100.272 16.416C100.784 16.416 101.216 16.2667 101.568 15.968C101.92 15.6587 102.096 15.2267 102.096 14.672V13.952L101.168 13.984ZM111.784 9.104C111.902 9.104 112.04 9.10933 112.2 9.12C112.36 9.13067 112.488 9.14667 112.584 9.168L112.408 11.408C112.334 11.3867 112.222 11.3707 112.072 11.36C111.934 11.3387 111.811 11.328 111.704 11.328C111.395 11.328 111.096 11.3707 110.808 11.456C110.52 11.5307 110.259 11.6533 110.024 11.824C109.8 11.9947 109.619 12.224 109.48 12.512C109.352 12.7893 109.288 13.136 109.288 13.552V18H106.904V9.264H108.712L109.064 10.736H109.176C109.347 10.4373 109.56 10.1653 109.816 9.92C110.072 9.67467 110.366 9.47733 110.696 9.328C111.038 9.17867 111.4 9.104 111.784 9.104ZM116.625 18.16C115.655 18.16 114.86 17.7813 114.241 17.024C113.633 16.256 113.329 15.1307 113.329 13.648C113.329 12.1547 113.639 11.024 114.257 10.256C114.876 9.488 115.687 9.104 116.689 9.104C117.105 9.104 117.473 9.16267 117.793 9.28C118.113 9.38667 118.385 9.536 118.609 9.728C118.844 9.92 119.041 10.1387 119.201 10.384H119.281C119.249 10.2133 119.212 9.968 119.169 9.648C119.127 9.31733 119.105 8.98133 119.105 8.64V5.84H121.489V18H119.665L119.201 16.864H119.105C118.956 17.0987 118.764 17.3173 118.529 17.52C118.305 17.712 118.039 17.8667 117.729 17.984C117.42 18.1013 117.052 18.16 116.625 18.16ZM117.457 16.256C118.119 16.256 118.583 16.064 118.849 15.68C119.116 15.2853 119.255 14.6987 119.265 13.92V13.664C119.265 12.8107 119.132 12.16 118.865 11.712C118.609 11.264 118.129 11.04 117.425 11.04C116.903 11.04 116.492 11.2693 116.193 11.728C115.895 12.176 115.745 12.8267 115.745 13.68C115.745 14.5333 115.895 15.1787 116.193 15.616C116.492 16.0427 116.913 16.256 117.457 16.256Z" fill="#6F767E"/>
</svg>
