<svg width="224" height="48" viewBox="0 0 224 48" fill="none" xmlns="http://www.w3.org/2000/svg">
<rect width="224" height="48" rx="6" fill="white"/>
<path d="M24 34C18.4771 34 14 29.5228 14 24C14 18.4771 18.4771 14 24 14C29.5228 14 34 18.4771 34 24C34 29.5228 29.5228 34 24 34ZM24 32C28.4183 32 32 28.4183 32 24C32 19.5817 28.4183 16 24 16C19.5817 16 16 19.5817 16 24C16 28.4183 19.5817 32 24 32ZM23 27H25V29H23V27ZM25 25.3551V26H23V24.5C23 23.9477 23.4477 23.5 24 23.5C24.8284 23.5 25.5 22.8284 25.5 22C25.5 21.1716 24.8284 20.5 24 20.5C23.2723 20.5 22.6656 21.0182 22.5288 21.7058L20.5673 21.3135C20.8864 19.7092 22.302 18.5 24 18.5C25.933 18.5 27.5 20.067 27.5 22C27.5 23.5855 26.4457 24.9248 25 25.3551Z" fill="#6F767E"/>
<path d="M58.608 30H56.56V24.928H51.536V30H49.488V18.576H51.536V23.184H56.56V18.576H58.608V30ZM64.8778 21.168C65.6564 21.168 66.3231 21.328 66.8778 21.648C67.4431 21.9573 67.8804 22.4053 68.1898 22.992C68.4991 23.568 68.6538 24.272 68.6538 25.104V26.128H62.9258C62.9471 26.9173 63.1658 27.5307 63.5818 27.968C63.9978 28.3947 64.5738 28.608 65.3098 28.608C65.8751 28.608 66.3764 28.5547 66.8138 28.448C67.2618 28.3307 67.7204 28.1653 68.1898 27.952V29.568C67.7631 29.7707 67.3204 29.92 66.8618 30.016C66.4031 30.112 65.8538 30.16 65.2138 30.16C64.3711 30.16 63.6191 30 62.9578 29.68C62.3071 29.3493 61.7951 28.8533 61.4218 28.192C61.0591 27.5307 60.8778 26.7093 60.8778 25.728C60.8778 24.736 61.0431 23.904 61.3738 23.232C61.7151 22.5493 62.1844 22.0373 62.7818 21.696C63.3791 21.344 64.0778 21.168 64.8778 21.168ZM64.8778 22.656C64.3444 22.656 63.9071 22.832 63.5658 23.184C63.2351 23.5253 63.0378 24.0373 62.9738 24.72H66.7018C66.7018 24.3147 66.6324 23.9573 66.4938 23.648C66.3658 23.3387 66.1684 23.0987 65.9018 22.928C65.6351 22.7467 65.2938 22.656 64.8778 22.656ZM72.7026 30H70.6866V17.84H72.7026V30ZM79.8404 21.168C80.8537 21.168 81.6697 21.5467 82.2884 22.304C82.907 23.0507 83.2164 24.1653 83.2164 25.648C83.2164 26.6293 83.0724 27.456 82.7844 28.128C82.4964 28.8 82.0964 29.3067 81.5844 29.648C81.0724 29.9893 80.475 30.16 79.7924 30.16C79.3764 30.16 79.0084 30.1067 78.6884 30C78.3684 29.8827 78.0964 29.7387 77.8724 29.568C77.6484 29.3867 77.4564 29.1947 77.2964 28.992H77.1684C77.211 29.184 77.243 29.4027 77.2644 29.648C77.2857 29.8827 77.2964 30.1067 77.2964 30.32V33.84H75.2804V21.328H76.9124L77.2004 22.48H77.2964C77.4564 22.2347 77.6484 22.016 77.8724 21.824C78.107 21.6213 78.3844 21.4613 78.7044 21.344C79.035 21.2267 79.4137 21.168 79.8404 21.168ZM79.2644 22.8C78.795 22.8 78.4164 22.896 78.1284 23.088C77.8404 23.2693 77.6324 23.552 77.5044 23.936C77.3764 24.32 77.307 24.8 77.2964 25.376V25.632C77.2964 26.2507 77.355 26.7733 77.4724 27.2C77.6004 27.6267 77.8084 27.952 78.0964 28.176C78.395 28.4 78.795 28.512 79.2964 28.512C79.723 28.512 80.0697 28.3947 80.3364 28.16C80.6137 27.9253 80.8164 27.5947 80.9444 27.168C81.083 26.7307 81.1524 26.2133 81.1524 25.616C81.1524 24.72 80.9977 24.0267 80.6884 23.536C80.3897 23.0453 79.915 22.8 79.2644 22.8Z" fill="#6F767E"/>
</svg>
