<svg width="224" height="48" viewBox="0 0 224 48" fill="none" xmlns="http://www.w3.org/2000/svg">
<rect width="224" height="48" rx="6" fill="white"/>
<g clip-path="url(#clip0_1_44)">
<path fill-rule="evenodd" clip-rule="evenodd" d="M20.8379 19.3354C20.8108 19.3164 20.7698 19.3063 20.7279 19.3165C18.2068 19.9245 15.8698 22.6954 15.8698 25.662C15.8698 29.2553 18.8442 32.1687 22.5143 32.1687C25.8371 32.1687 28.5819 29.833 29.0773 26.6904C29.0774 26.6897 29.0775 26.6888 29.0776 26.6884C29.0763 26.6859 29.0731 26.6811 29.0668 26.6746C29.0433 26.6506 28.9969 26.6258 28.9374 26.6258C27.8652 26.6258 26.9999 26.6448 26.2892 26.664C26.1338 26.6682 25.9845 26.6724 25.8411 26.6765C25.337 26.6908 24.9067 26.7031 24.5459 26.7034C23.6246 26.7041 22.898 26.6372 22.2185 26.1442C21.5235 25.6398 21.2042 24.9364 21.0425 23.9146C20.8873 22.9349 20.8522 21.4994 20.8522 19.3499M20.8379 19.3354C20.8463 19.3413 20.8505 19.3462 20.8522 19.3484L20.8379 19.3354ZM20.2803 17.5385C21.4201 17.2632 22.7219 18.0353 22.7219 19.3499C22.7219 21.5299 22.7611 22.8191 22.8901 23.634C23.0125 24.4069 23.1872 24.568 23.3316 24.6728C23.4916 24.7889 23.6782 24.8728 24.5443 24.8721C24.8763 24.8719 25.2701 24.8607 25.7674 24.8465C25.9147 24.8423 26.0711 24.8379 26.2377 24.8334C26.9577 24.814 27.8417 24.7945 28.9374 24.7945C30.0336 24.7945 31.1248 25.7054 30.9252 26.9698C30.2889 31.0058 26.7591 34 22.5143 34C17.8118 34 14 30.2669 14 25.662C14 21.8743 16.903 18.3533 20.2803 17.5385Z" fill="#6F767E"/>
<path fill-rule="evenodd" clip-rule="evenodd" d="M31.5147 16.8123C33.0095 18.3731 34.0302 20.4087 33.9993 22.121L33.0646 22.1048L33.9994 22.1191C33.9993 22.1197 33.9993 22.1203 33.9993 22.121C33.9866 22.861 33.4371 23.5163 32.6573 23.6318C30.2503 23.9885 27.0277 23.8739 25.6158 23.7948C24.7153 23.7439 24.0017 23.0445 23.9496 22.1628C23.8688 20.817 23.7212 17.812 23.8309 15.4731C23.8667 14.702 24.5001 14.0165 25.3576 14.0011M31.5147 16.8123C30.0013 15.2321 27.8289 13.9565 25.3576 14.0011L31.5147 16.8123ZM30.1509 18.0651C28.9408 16.8015 27.3587 15.9038 25.687 15.8355C25.6071 17.9824 25.7333 20.6525 25.8111 21.9714C27.1994 22.0464 29.9977 22.133 32.1234 21.8565C32.0484 20.7968 31.3597 19.3272 30.1509 18.0651ZM25.6988 15.5561C25.6987 15.5565 25.6987 15.5568 25.6987 15.5572L25.6988 15.5561Z" fill="#6F767E"/>
</g>
<path d="M52.736 18.576C53.7387 18.576 54.5653 18.6987 55.216 18.944C55.8667 19.1893 56.352 19.5627 56.672 20.064C56.992 20.5547 57.152 21.1787 57.152 21.936C57.152 22.4907 57.0453 22.9653 56.832 23.36C56.6293 23.7547 56.3627 24.0853 56.032 24.352C55.7013 24.608 55.344 24.816 54.96 24.976L58.24 30H55.936L53.2 25.488H51.536V30H49.488V18.576H52.736ZM52.608 20.288H51.536V23.808H52.672C53.2373 23.808 53.696 23.7387 54.048 23.6C54.4 23.4613 54.656 23.2587 54.816 22.992C54.9867 22.7253 55.072 22.3947 55.072 22C55.072 21.584 54.9813 21.2533 54.8 21.008C54.6187 20.752 54.3467 20.5707 53.984 20.464C53.632 20.3467 53.1733 20.288 52.608 20.288ZM63.1278 21.168C63.9064 21.168 64.5731 21.328 65.1278 21.648C65.6931 21.9573 66.1304 22.4053 66.4398 22.992C66.7491 23.568 66.9038 24.272 66.9038 25.104V26.128H61.1758C61.1971 26.9173 61.4158 27.5307 61.8318 27.968C62.2478 28.3947 62.8238 28.608 63.5598 28.608C64.1251 28.608 64.6264 28.5547 65.0638 28.448C65.5118 28.3307 65.9704 28.1653 66.4398 27.952V29.568C66.0131 29.7707 65.5704 29.92 65.1118 30.016C64.6531 30.112 64.1038 30.16 63.4638 30.16C62.6211 30.16 61.8691 30 61.2078 29.68C60.5571 29.3493 60.0451 28.8533 59.6718 28.192C59.3091 27.5307 59.1278 26.7093 59.1278 25.728C59.1278 24.736 59.2931 23.904 59.6238 23.232C59.9651 22.5493 60.4344 22.0373 61.0318 21.696C61.6291 21.344 62.3278 21.168 63.1278 21.168ZM63.1278 22.656C62.5944 22.656 62.1571 22.832 61.8158 23.184C61.4851 23.5253 61.2878 24.0373 61.2238 24.72H64.9518C64.9518 24.3147 64.8824 23.9573 64.7438 23.648C64.6158 23.3387 64.4184 23.0987 64.1518 22.928C63.8851 22.7467 63.5438 22.656 63.1278 22.656ZM73.4966 21.168C74.51 21.168 75.326 21.5467 75.9446 22.304C76.5633 23.0507 76.8726 24.1653 76.8726 25.648C76.8726 26.6293 76.7286 27.456 76.4406 28.128C76.1526 28.8 75.7526 29.3067 75.2406 29.648C74.7286 29.9893 74.1313 30.16 73.4486 30.16C73.0326 30.16 72.6646 30.1067 72.3446 30C72.0246 29.8827 71.7526 29.7387 71.5286 29.568C71.3046 29.3867 71.1126 29.1947 70.9526 28.992H70.8246C70.8673 29.184 70.8993 29.4027 70.9206 29.648C70.942 29.8827 70.9526 30.1067 70.9526 30.32V33.84H68.9366V21.328H70.5686L70.8566 22.48H70.9526C71.1126 22.2347 71.3046 22.016 71.5286 21.824C71.7633 21.6213 72.0406 21.4613 72.3606 21.344C72.6913 21.2267 73.07 21.168 73.4966 21.168ZM72.9206 22.8C72.4513 22.8 72.0726 22.896 71.7846 23.088C71.4966 23.2693 71.2886 23.552 71.1606 23.936C71.0326 24.32 70.9633 24.8 70.9526 25.376V25.632C70.9526 26.2507 71.0113 26.7733 71.1286 27.2C71.2566 27.6267 71.4646 27.952 71.7526 28.176C72.0513 28.4 72.4513 28.512 72.9526 28.512C73.3793 28.512 73.726 28.3947 73.9926 28.16C74.27 27.9253 74.4726 27.5947 74.6006 27.168C74.7393 26.7307 74.8086 26.2133 74.8086 25.616C74.8086 24.72 74.654 24.0267 74.3446 23.536C74.046 23.0453 73.5713 22.8 72.9206 22.8ZM86.6962 25.648C86.6962 26.3733 86.6003 27.0133 86.4083 27.568C86.2163 28.1227 85.9389 28.5973 85.5763 28.992C85.2243 29.376 84.7869 29.6693 84.2643 29.872C83.7523 30.064 83.1816 30.16 82.5523 30.16C81.9549 30.16 81.4056 30.064 80.9043 29.872C80.4029 29.6693 79.9656 29.376 79.5923 28.992C79.2296 28.5973 78.9469 28.1227 78.7443 27.568C78.5416 27.0133 78.4403 26.3733 78.4403 25.648C78.4403 24.688 78.6056 23.8773 78.9363 23.216C79.2669 22.544 79.7416 22.0373 80.3603 21.696C80.9896 21.344 81.7309 21.168 82.5843 21.168C83.3949 21.168 84.1043 21.344 84.7123 21.696C85.3309 22.0373 85.8163 22.544 86.1683 23.216C86.5203 23.8773 86.6962 24.688 86.6962 25.648ZM80.5043 25.648C80.5043 26.256 80.5736 26.7787 80.7123 27.216C80.8616 27.6427 81.0856 27.968 81.3843 28.192C81.6936 28.416 82.0883 28.528 82.5683 28.528C83.0589 28.528 83.4536 28.416 83.7523 28.192C84.0616 27.968 84.2856 27.6427 84.4243 27.216C84.5629 26.7787 84.6323 26.256 84.6323 25.648C84.6323 25.0293 84.5576 24.512 84.4083 24.096C84.2696 23.6693 84.0456 23.3493 83.7363 23.136C83.4376 22.912 83.0483 22.8 82.5683 22.8C81.8429 22.8 81.3149 23.0453 80.9843 23.536C80.6643 24.0267 80.5043 24.7307 80.5043 25.648ZM93.3244 21.168C93.4524 21.168 93.6017 21.1733 93.7724 21.184C93.943 21.1947 94.087 21.216 94.2044 21.248L94.0284 23.12C93.9324 23.0987 93.8044 23.0827 93.6444 23.072C93.495 23.0507 93.3617 23.04 93.2444 23.04C92.9244 23.04 92.615 23.0933 92.3164 23.2C92.0284 23.296 91.767 23.4453 91.5324 23.648C91.3084 23.84 91.127 24.0907 90.9884 24.4C90.8604 24.7093 90.7964 25.0773 90.7964 25.504V30H88.7804V21.328H90.3324L90.6204 22.832H90.7164C90.887 22.5227 91.1004 22.2453 91.3564 22C91.6124 21.744 91.9057 21.5413 92.2364 21.392C92.5777 21.2427 92.9404 21.168 93.3244 21.168ZM99.1716 28.544C99.4276 28.544 99.673 28.5227 99.9076 28.48C100.142 28.4267 100.361 28.368 100.564 28.304V29.808C100.35 29.904 100.073 29.984 99.7316 30.048C99.3903 30.1227 99.033 30.16 98.6596 30.16C98.169 30.16 97.721 30.08 97.3156 29.92C96.921 29.7493 96.601 29.4613 96.3556 29.056C96.121 28.6507 96.0036 28.0853 96.0036 27.36V22.848H94.8356V21.968L96.1156 21.264L96.7556 19.424H98.0196V21.328H100.484V22.848H98.0196V27.344C98.0196 27.7493 98.1263 28.0533 98.3396 28.256C98.553 28.448 98.8303 28.544 99.1716 28.544ZM108.216 27.488C108.216 28.064 108.077 28.5547 107.8 28.96C107.522 29.3547 107.112 29.6533 106.568 29.856C106.034 30.0587 105.378 30.16 104.6 30.16C103.992 30.16 103.469 30.1173 103.032 30.032C102.594 29.9467 102.178 29.8133 101.784 29.632V27.92C102.21 28.1227 102.685 28.2933 103.208 28.432C103.73 28.5707 104.216 28.64 104.664 28.64C105.218 28.64 105.618 28.5547 105.864 28.384C106.109 28.2133 106.232 27.984 106.232 27.696C106.232 27.5253 106.184 27.3707 106.088 27.232C105.992 27.0933 105.805 26.9493 105.528 26.8C105.25 26.64 104.829 26.4427 104.264 26.208C103.709 25.984 103.245 25.76 102.872 25.536C102.509 25.312 102.232 25.0453 102.04 24.736C101.858 24.416 101.768 24.016 101.768 23.536C101.768 22.7573 102.077 22.1707 102.696 21.776C103.314 21.3707 104.13 21.168 105.144 21.168C105.677 21.168 106.178 21.2213 106.648 21.328C107.128 21.424 107.608 21.584 108.088 21.808L107.448 23.296C107.181 23.1787 106.914 23.0773 106.648 22.992C106.392 22.896 106.13 22.8213 105.864 22.768C105.608 22.7147 105.346 22.688 105.08 22.688C104.642 22.688 104.312 22.7573 104.088 22.896C103.864 23.024 103.752 23.2053 103.752 23.44C103.752 23.6213 103.805 23.7813 103.912 23.92C104.029 24.048 104.226 24.1813 104.504 24.32C104.792 24.448 105.197 24.6187 105.72 24.832C106.242 25.0347 106.685 25.248 107.048 25.472C107.421 25.6853 107.709 25.952 107.912 26.272C108.114 26.592 108.216 26.9973 108.216 27.488Z" fill="#6F767E"/>
<defs>
<clipPath id="clip0_1_44">
<rect width="24" height="24" fill="white" transform="translate(12 12)"/>
</clipPath>
</defs>
</svg>
