<svg width="224" height="48" viewBox="0 0 224 48" fill="none" xmlns="http://www.w3.org/2000/svg">
<rect width="224" height="48" rx="6" fill="white"/>
<g clip-path="url(#clip0_1_50)">
<path fill-rule="evenodd" clip-rule="evenodd" d="M25.8448 14.4683C25.8456 14.4688 25.8465 14.4693 25.8474 14.4698L30.7316 17.3609C30.7517 17.3728 30.7715 17.3854 30.7907 17.3988L30.8209 17.4196C31.2396 17.7089 31.5998 17.9578 31.8799 18.185C32.1739 18.4234 32.4491 18.6915 32.6486 19.0447C32.8529 19.4067 32.9322 19.7766 32.9676 20.1452C33.0001 20.4827 33 20.8842 33 21.3287V26.6713C33 27.1158 33.0001 27.5173 32.9676 27.8548C32.9322 28.2234 32.8529 28.5933 32.6486 28.9553C32.4491 29.3085 32.1739 29.5766 31.8799 29.815C31.5998 30.0422 31.2396 30.2911 30.8209 30.5804L30.7907 30.6012C30.7715 30.6146 30.7517 30.6272 30.7316 30.6391L25.8474 33.5302C25.8465 33.5307 25.8455 33.5313 25.8446 33.5318C25.2882 33.8644 24.6177 34 24.0033 34C23.3874 34 22.7161 33.8638 22.1573 33.5329C22.1573 33.5329 22.1573 33.533 22.1573 33.5329L17.2684 30.6391C17.2483 30.6272 17.2285 30.6146 17.2093 30.6012L17.1791 30.5804C16.7604 30.2911 16.4001 30.0421 16.1198 29.8146C15.8255 29.5758 15.5502 29.3072 15.3508 28.953C15.1467 28.5906 15.0676 28.2199 15.0323 27.8505C14.9999 27.5119 15 27.109 15 26.6621V21.3287C15 20.8841 14.9999 20.4827 15.0324 20.1452C15.0678 19.7766 15.1471 19.4067 15.3514 19.0447C15.5509 18.6915 15.8261 18.4234 16.1201 18.185C16.4002 17.9578 16.7604 17.7089 17.1792 17.4196L17.2093 17.3988C17.2285 17.3854 17.2483 17.3728 17.2684 17.3609L22.1572 14.4671C22.1572 14.4671 22.1572 14.4671 22.1572 14.4671C22.716 14.1363 23.3874 14 24.0033 14C24.6178 14 25.2883 14.1356 25.8448 14.4683ZM24.0033 16C23.6526 16 23.3551 16.0822 23.1761 16.1881L18.3174 19.0641C17.8765 19.3688 17.5886 19.5691 17.3799 19.7383C17.1739 19.9054 17.1158 19.9877 17.093 20.0281C17.0751 20.0597 17.0433 20.1266 17.0232 20.3364C17.0011 20.5669 17 20.8711 17 21.3701V26.6208C17 27.122 17.0011 27.4282 17.0232 27.6602C17.0435 27.8718 17.0755 27.9397 17.0936 27.9719C17.1165 28.0125 17.1745 28.0948 17.3802 28.2617C17.5887 28.431 17.8764 28.6312 18.3174 28.9359L23.176 31.8118C23.355 31.9178 23.6526 32 24.0033 32C24.3546 32 24.6474 31.9176 24.8193 31.8146L24.824 31.8118L29.6826 28.9359C30.1235 28.6312 30.4114 28.4309 30.6201 28.2617C30.8261 28.0946 30.8842 28.0123 30.907 27.9719C30.9249 27.9403 30.9567 27.8734 30.9768 27.6636C30.9989 27.4331 31 27.1289 31 26.6299V21.3701C31 20.8711 30.9989 20.5669 30.9768 20.3364C30.9567 20.1266 30.9249 20.0597 30.907 20.0281C30.8842 19.9877 30.8261 19.9054 30.6201 19.7383C30.4114 19.5691 30.1235 19.3688 29.6826 19.0641L24.8193 16.1854C24.6474 16.0824 24.3546 16 24.0033 16ZM24 22C22.8954 22 22 22.8954 22 24C22 25.1046 22.8954 26 24 26C25.1046 26 26 25.1046 26 24C26 22.8954 25.1046 22 24 22ZM20 24C20 21.7909 21.7909 20 24 20C26.2091 20 28 21.7909 28 24C28 26.2091 26.2091 28 24 28C21.7909 28 20 26.2091 20 24Z" fill="#6F767E"/>
</g>
<path d="M56.128 26.88C56.128 27.552 55.9627 28.1333 55.632 28.624C55.3013 29.1147 54.8213 29.4933 54.192 29.76C53.5733 30.0267 52.832 30.16 51.968 30.16C51.552 30.16 51.152 30.1333 50.768 30.08C50.3947 30.0373 50.0373 29.968 49.696 29.872C49.3653 29.776 49.056 29.6587 48.768 29.52V27.6C49.248 27.8133 49.776 28.0107 50.352 28.192C50.928 28.3627 51.5147 28.448 52.112 28.448C52.5707 28.448 52.944 28.3893 53.232 28.272C53.5307 28.144 53.7493 27.9733 53.888 27.76C54.0267 27.536 54.096 27.28 54.096 26.992C54.096 26.672 54.0053 26.4 53.824 26.176C53.6427 25.952 53.376 25.744 53.024 25.552C52.672 25.36 52.2347 25.1573 51.712 24.944C51.36 24.7947 51.0133 24.6293 50.672 24.448C50.3413 24.256 50.0427 24.0267 49.776 23.76C49.5093 23.4933 49.296 23.1787 49.136 22.816C48.976 22.4533 48.896 22.0267 48.896 21.536C48.896 20.8853 49.0507 20.3253 49.36 19.856C49.68 19.3867 50.1227 19.0293 50.688 18.784C51.264 18.5387 51.9307 18.416 52.688 18.416C53.296 18.416 53.8667 18.48 54.4 18.608C54.9333 18.736 55.4613 18.9173 55.984 19.152L55.328 20.8C54.8587 20.5973 54.4053 20.4373 53.968 20.32C53.5307 20.2027 53.0827 20.144 52.624 20.144C52.2613 20.144 51.952 20.2027 51.696 20.32C51.44 20.4267 51.248 20.5813 51.12 20.784C50.992 20.9867 50.928 21.2213 50.928 21.488C50.928 21.7973 51.008 22.0587 51.168 22.272C51.328 22.4853 51.5733 22.688 51.904 22.88C52.2453 23.0613 52.6827 23.2693 53.216 23.504C53.8347 23.7707 54.3573 24.048 54.784 24.336C55.2107 24.624 55.5413 24.9707 55.776 25.376C56.0107 25.7813 56.128 26.2827 56.128 26.88ZM61.5809 21.168C62.3595 21.168 63.0262 21.328 63.5809 21.648C64.1462 21.9573 64.5835 22.4053 64.8929 22.992C65.2022 23.568 65.3569 24.272 65.3569 25.104V26.128H59.6289C59.6502 26.9173 59.8689 27.5307 60.2849 27.968C60.7009 28.3947 61.2769 28.608 62.0129 28.608C62.5782 28.608 63.0795 28.5547 63.5169 28.448C63.9649 28.3307 64.4235 28.1653 64.8929 27.952V29.568C64.4662 29.7707 64.0235 29.92 63.5649 30.016C63.1062 30.112 62.5569 30.16 61.9169 30.16C61.0742 30.16 60.3222 30 59.6609 29.68C59.0102 29.3493 58.4982 28.8533 58.1249 28.192C57.7622 27.5307 57.5809 26.7093 57.5809 25.728C57.5809 24.736 57.7462 23.904 58.0769 23.232C58.4182 22.5493 58.8875 22.0373 59.4849 21.696C60.0822 21.344 60.7809 21.168 61.5809 21.168ZM61.5809 22.656C61.0475 22.656 60.6102 22.832 60.2689 23.184C59.9382 23.5253 59.7409 24.0373 59.6769 24.72H63.4049C63.4049 24.3147 63.3355 23.9573 63.1969 23.648C63.0689 23.3387 62.8715 23.0987 62.6049 22.928C62.3382 22.7467 61.9969 22.656 61.5809 22.656ZM70.7498 28.544C71.0058 28.544 71.2511 28.5227 71.4858 28.48C71.7204 28.4267 71.9391 28.368 72.1418 28.304V29.808C71.9284 29.904 71.6511 29.984 71.3098 30.048C70.9684 30.1227 70.6111 30.16 70.2378 30.16C69.7471 30.16 69.2991 30.08 68.8938 29.92C68.4991 29.7493 68.1791 29.4613 67.9338 29.056C67.6991 28.6507 67.5818 28.0853 67.5818 27.36V22.848H66.4138V21.968L67.6938 21.264L68.3338 19.424H69.5978V21.328H72.0618V22.848H69.5978V27.344C69.5978 27.7493 69.7044 28.0533 69.9178 28.256C70.1311 28.448 70.4084 28.544 70.7498 28.544ZM77.2498 28.544C77.5058 28.544 77.7511 28.5227 77.9858 28.48C78.2204 28.4267 78.4391 28.368 78.6418 28.304V29.808C78.4284 29.904 78.1511 29.984 77.8098 30.048C77.4684 30.1227 77.1111 30.16 76.7378 30.16C76.2471 30.16 75.7991 30.08 75.3938 29.92C74.9991 29.7493 74.6791 29.4613 74.4338 29.056C74.1991 28.6507 74.0818 28.0853 74.0818 27.36V22.848H72.9138V21.968L74.1938 21.264L74.8338 19.424H76.0978V21.328H78.5618V22.848H76.0978V27.344C76.0978 27.7493 76.2044 28.0533 76.4178 28.256C76.6311 28.448 76.9084 28.544 77.2498 28.544ZM82.4058 21.328V30H80.3898V21.328H82.4058ZM81.3978 17.984C81.6964 17.984 81.9578 18.064 82.1818 18.224C82.4058 18.3733 82.5178 18.6453 82.5178 19.04C82.5178 19.424 82.4058 19.7013 82.1818 19.872C81.9578 20.032 81.6964 20.112 81.3978 20.112C81.0884 20.112 80.8218 20.032 80.5978 19.872C80.3844 19.7013 80.2778 19.424 80.2778 19.04C80.2778 18.6453 80.3844 18.3733 80.5978 18.224C80.8218 18.064 81.0884 17.984 81.3978 17.984ZM89.6235 21.168C90.5942 21.168 91.3515 21.4187 91.8955 21.92C92.4502 22.4213 92.7275 23.232 92.7275 24.352V30H90.7115V24.752C90.7115 24.1013 90.5835 23.616 90.3275 23.296C90.0715 22.9653 89.6662 22.8 89.1115 22.8C88.3008 22.8 87.7462 23.056 87.4475 23.568C87.1488 24.0693 86.9995 24.8 86.9995 25.76V30H84.9835V21.328H86.5355L86.8235 22.464H86.9355C87.1275 22.1653 87.3622 21.92 87.6395 21.728C87.9168 21.536 88.2262 21.3973 88.5675 21.312C88.9088 21.216 89.2608 21.168 89.6235 21.168ZM98.1611 21.168C98.7051 21.168 99.1958 21.2747 99.6331 21.488C100.07 21.7013 100.438 22.0213 100.737 22.448H100.817L101.009 21.328H102.689V30.064C102.689 30.8853 102.534 31.5733 102.225 32.128C101.916 32.6933 101.452 33.12 100.833 33.408C100.214 33.696 99.4411 33.84 98.5131 33.84C97.8945 33.84 97.3238 33.7973 96.8011 33.712C96.2785 33.6373 95.7825 33.504 95.3131 33.312V31.648C95.6438 31.7867 95.9851 31.904 96.3371 32C96.6998 32.1067 97.0731 32.1867 97.4571 32.24C97.8411 32.2933 98.2358 32.32 98.6411 32.32C99.3025 32.32 99.8038 32.1333 100.145 31.76C100.497 31.3867 100.673 30.8533 100.673 30.16V29.936C100.673 29.776 100.678 29.5893 100.689 29.376C100.71 29.1627 100.726 28.992 100.737 28.864H100.673C100.374 29.312 100.012 29.6427 99.5851 29.856C99.1585 30.0587 98.6678 30.16 98.1131 30.16C97.0571 30.16 96.2305 29.7653 95.6331 28.976C95.0358 28.1867 94.7371 27.088 94.7371 25.68C94.7371 24.7307 94.8705 23.92 95.1371 23.248C95.4145 22.576 95.8091 22.064 96.3211 21.712C96.8331 21.3493 97.4465 21.168 98.1611 21.168ZM98.6891 22.816C98.2838 22.816 97.9371 22.928 97.6491 23.152C97.3718 23.3653 97.1585 23.6853 97.0091 24.112C96.8705 24.5387 96.8011 25.072 96.8011 25.712C96.8011 26.6507 96.9611 27.36 97.2811 27.84C97.6011 28.32 98.0811 28.56 98.7211 28.56C99.0838 28.56 99.3931 28.5173 99.6491 28.432C99.9051 28.336 100.113 28.1867 100.273 27.984C100.444 27.7707 100.572 27.504 100.657 27.184C100.742 26.8533 100.785 26.4587 100.785 26V25.696C100.785 25.0027 100.71 24.448 100.561 24.032C100.412 23.6053 100.182 23.296 99.8731 23.104C99.5745 22.912 99.1798 22.816 98.6891 22.816ZM111.169 27.488C111.169 28.064 111.03 28.5547 110.753 28.96C110.475 29.3547 110.065 29.6533 109.521 29.856C108.987 30.0587 108.331 30.16 107.553 30.16C106.945 30.16 106.422 30.1173 105.985 30.032C105.547 29.9467 105.131 29.8133 104.737 29.632V27.92C105.163 28.1227 105.638 28.2933 106.161 28.432C106.683 28.5707 107.169 28.64 107.617 28.64C108.171 28.64 108.571 28.5547 108.817 28.384C109.062 28.2133 109.185 27.984 109.185 27.696C109.185 27.5253 109.137 27.3707 109.041 27.232C108.945 27.0933 108.758 26.9493 108.481 26.8C108.203 26.64 107.782 26.4427 107.217 26.208C106.662 25.984 106.198 25.76 105.825 25.536C105.462 25.312 105.185 25.0453 104.993 24.736C104.811 24.416 104.721 24.016 104.721 23.536C104.721 22.7573 105.03 22.1707 105.649 21.776C106.267 21.3707 107.083 21.168 108.097 21.168C108.63 21.168 109.131 21.2213 109.601 21.328C110.081 21.424 110.561 21.584 111.041 21.808L110.401 23.296C110.134 23.1787 109.867 23.0773 109.601 22.992C109.345 22.896 109.083 22.8213 108.817 22.768C108.561 22.7147 108.299 22.688 108.033 22.688C107.595 22.688 107.265 22.7573 107.041 22.896C106.817 23.024 106.705 23.2053 106.705 23.44C106.705 23.6213 106.758 23.7813 106.865 23.92C106.982 24.048 107.179 24.1813 107.457 24.32C107.745 24.448 108.15 24.6187 108.673 24.832C109.195 25.0347 109.638 25.248 110.001 25.472C110.374 25.6853 110.662 25.952 110.865 26.272C111.067 26.592 111.169 26.9973 111.169 27.488Z" fill="#6F767E"/>
<defs>
<clipPath id="clip0_1_50">
<rect width="24" height="24" fill="white" transform="translate(12 12)"/>
</clipPath>
</defs>
</svg>
